<svg aria-hidden="true" style="position: absolute; width: 0; height: 0; overflow: hidden;" version="1.1"
     xmlns="http://www.w3.org/2000/svg" xmlns:xlink="http://www.w3.org/1999/xlink">
    <defs>
        <symbol id="icon-twitter" viewBox="0 0 32 32">
            <path stroke-linejoin="miter" stroke-linecap="butt" stroke-miterlimit="4" stroke-width="0.5333"
                  d="M16 0.267c8.689 0 15.733 7.044 15.733 15.733s-7.044 15.733-15.733 15.733c-8.689 0-15.733-7.044-15.733-15.733s7.044-15.733 15.733-15.733z"></path>
            <path stroke-linejoin="round" stroke-linecap="round" stroke-miterlimit="4" stroke-width="0.5333"
                  d="M21.867 11.205c0 0-1.076 0.636-1.675 0.816-0.321-0.369-0.748-0.631-1.223-0.75s-0.975-0.089-1.432 0.086c-0.457 0.175-0.85 0.485-1.125 0.89s-0.419 0.885-0.412 1.374v0.533c-0.937 0.024-1.866-0.184-2.703-0.605s-1.558-1.044-2.097-1.811c0 0-2.133 4.8 2.667 6.933-1.098 0.746-2.407 1.119-3.733 1.067 4.8 2.667 10.667 0 10.667-6.133-0-0.149-0.015-0.297-0.043-0.443 0.544-0.537 1.109-1.957 1.109-1.957z"></path>
        </symbol>
        <symbol id="icon-insta" viewBox="0 0 32 32">
            <path stroke-linejoin="miter" stroke-linecap="butt" stroke-miterlimit="4" stroke-width="0.5333"
                  d="M16 0.267c8.689 0 15.733 7.044 15.733 15.733s-7.044 15.733-15.733 15.733c-8.689 0-15.733-7.044-15.733-15.733s7.044-15.733 15.733-15.733z"></path>
            <path stroke-linejoin="round" stroke-linecap="round" stroke-miterlimit="4" stroke-width="0.5333"
                  d="M16 18.133c1.178 0 2.133-0.955 2.133-2.133s-0.955-2.133-2.133-2.133c-1.178 0-2.133 0.955-2.133 2.133s0.955 2.133 2.133 2.133z"></path>
            <path stroke-linejoin="miter" stroke-linecap="butt" stroke-miterlimit="4" stroke-width="0.5333"
                  d="M11.2 18.133v-4.267c0-1.473 1.194-2.667 2.667-2.667h4.267c1.473 0 2.667 1.194 2.667 2.667v4.267c0 1.473-1.194 2.667-2.667 2.667h-4.267c-1.473 0-2.667-1.194-2.667-2.667z"></path>
            <path stroke-linejoin="round" stroke-linecap="round" stroke-miterlimit="4" stroke-width="0.5333"
                  d="M18.933 13.072l0.005-0.006"></path>
        </symbol>
        <symbol id="icon-facebook" viewBox="0 0 32 32">
            <path stroke-linejoin="miter" stroke-linecap="butt" stroke-miterlimit="4" stroke-width="0.5333"
                  d="M16 0.267c8.689 0 15.733 7.044 15.733 15.733s-7.044 15.733-15.733 15.733c-8.689 0-15.733-7.044-15.733-15.733s7.044-15.733 15.733-15.733z"></path>
            <path stroke-linejoin="round" stroke-linecap="round" stroke-miterlimit="4" stroke-width="0.5333"
                  d="M18.667 10.667h-1.6c-0.707 0-1.386 0.281-1.886 0.781s-0.781 1.178-0.781 1.886v1.6h-1.6v2.133h1.6v4.267h2.133v-4.267h1.6l0.533-2.133h-2.133v-1.6c0-0.141 0.056-0.277 0.156-0.377s0.236-0.156 0.377-0.156h1.6v-2.133z"></path>
        </symbol>
    </defs>
</svg>
